<svg width="512" height="512" viewBox="0 0 512 512" fill="none" xmlns="http://www.w3.org/2000/svg">
<path d="M496.856 211.225C505.007 211.225 511.614 204.617 511.614 196.468V117.758C511.614 109.607 505.006 103 496.856 103H14.7579C6.60802 103 0 109.607 0 117.758V196.468C0 204.618 6.60802 211.225 14.7579 211.225C39.1705 211.225 59.0325 231.086 59.0325 255.5C59.0325 279.914 39.1715 299.775 14.7579 299.775C6.60802 299.775 0 306.382 0 314.532V393.242C0 401.393 6.60802 408 14.7579 408H496.856C505.007 408 511.614 401.392 511.614 393.242V314.532C511.614 306.382 505.006 299.775 496.856 299.775C472.444 299.775 452.582 279.914 452.582 255.5C452.582 231.086 472.443 211.225 496.856 211.225ZM482.098 327.807V378.484H172.178V334.21C172.178 326.059 165.57 319.452 157.42 319.452C149.27 319.452 142.662 326.06 142.662 334.21V378.484H29.5157V327.807C63.1554 320.951 88.5482 291.134 88.5482 255.5C88.5482 219.866 63.1554 190.048 29.5157 183.193V132.516H142.661V176.79C142.661 184.941 149.269 191.548 157.419 191.548C165.569 191.548 172.177 184.94 172.177 176.79V132.516H482.097V183.193C448.458 190.049 423.065 219.866 423.065 255.5C423.065 291.134 448.459 320.952 482.098 327.807Z" fill="black"/>
<path d="M157.42 221.064C149.269 221.064 142.662 227.672 142.662 235.822V275.177C142.662 283.328 149.27 289.935 157.42 289.935C165.57 289.935 172.178 283.327 172.178 275.177V235.822C172.179 227.672 165.571 221.064 157.42 221.064Z" fill="black"/>
</svg>
