<svg width="512" height="512" viewBox="0 0 512 512" fill="none" xmlns="http://www.w3.org/2000/svg">
<path d="M125.359 408C122.317 407.993 119.311 407.337 116.542 406.077C113.773 404.817 111.304 402.981 109.3 400.692C107.297 398.403 105.804 395.714 104.921 392.802C104.038 389.891 103.786 386.825 104.182 383.808L111.83 325.358C112.529 320.068 114.949 315.155 118.717 311.376L320.238 109.855C324.64 105.465 330.603 103 336.82 103C343.037 103 348.999 105.465 353.401 109.855L402.142 158.595C406.532 162.997 408.997 168.96 408.997 175.177C408.997 181.393 406.532 187.356 402.142 191.758L200.621 393.28C196.843 397.049 191.93 399.469 186.639 400.166L128.189 407.815C127.25 407.939 126.305 408 125.359 408ZM141.115 331.1L135.128 376.868L180.897 370.882L376.598 175.18L336.817 135.399L141.115 331.1Z" fill="black"/>
<path d="M346.366 241.369C344.411 241.375 342.475 240.995 340.668 240.25C338.86 239.506 337.218 238.413 335.834 237.032L274.965 176.163C272.171 173.366 270.603 169.575 270.605 165.622C270.608 161.67 272.18 157.88 274.976 155.087C277.773 152.293 281.564 150.725 285.517 150.728C289.469 150.73 293.259 152.302 296.053 155.099L356.898 215.944C358.981 218.027 360.4 220.681 360.975 223.57C361.55 226.459 361.255 229.454 360.128 232.176C359 234.897 357.091 237.224 354.641 238.86C352.192 240.496 349.312 241.369 346.366 241.369Z" fill="black"/>
</svg>
