<svg width="512" height="512" viewBox="0 0 512 512" fill="none" xmlns="http://www.w3.org/2000/svg">
<path d="M368.264 297.091C337.686 297.091 312.809 321.967 312.809 352.545C312.809 383.124 337.686 408 368.264 408C398.848 408 423.719 383.124 423.719 352.545C423.719 321.967 398.842 297.091 368.264 297.091ZM368.264 380.273C352.973 380.273 340.537 367.837 340.537 352.545C340.537 337.254 352.973 324.818 368.264 324.818C383.555 324.818 395.991 337.254 395.991 352.545C395.991 367.837 383.555 380.273 368.264 380.273ZM178.795 297.091C148.216 297.091 123.34 321.967 123.34 352.545C123.34 383.124 148.216 408 178.795 408C209.373 408 234.249 383.124 234.249 352.545C234.249 321.967 209.373 297.091 178.795 297.091ZM178.795 380.273C163.503 380.273 151.067 367.837 151.067 352.545C151.067 337.254 163.503 324.818 178.795 324.818C194.082 324.818 206.522 337.254 206.522 352.545C206.522 367.837 194.086 380.273 178.795 380.273ZM405.608 138.362C404.453 136.067 402.683 134.137 400.495 132.789C398.307 131.441 395.788 130.727 393.219 130.727H320.203V158.455H384.669L422.42 233.54L447.199 221.081L405.608 138.362Z" fill="black"/>
<path d="M221.773 339.144H326.674V366.872H221.773V339.144ZM137.204 339.144H89.1442C81.4865 339.144 75.2809 345.351 75.2809 353.008C75.2809 360.665 81.4873 366.871 89.1442 366.871H137.205C144.863 366.871 151.068 360.664 151.068 353.008C151.068 345.35 144.862 339.144 137.204 339.144ZM473.028 254.391L445.759 219.269C444.464 217.6 442.804 216.248 440.907 215.319C439.009 214.39 436.924 213.907 434.811 213.909H334.068V116.863C334.068 109.206 327.862 103 320.205 103H89.1442C81.4865 103 75.2809 109.206 75.2809 116.863C75.2809 124.52 81.4873 130.726 89.1442 130.726H306.341V227.772C306.341 235.429 312.547 241.635 320.204 241.635H428.022L448.212 267.643V339.143H409.856C402.198 339.143 395.992 345.349 395.992 353.006C395.992 360.664 402.199 366.869 409.856 366.869H462.075C469.733 366.869 475.939 360.663 475.939 353.006V262.894C475.939 259.816 474.913 256.822 473.028 254.391ZM136.28 268.902H72.5072C64.8495 268.902 58.644 275.108 58.644 282.765C58.644 290.423 64.8504 296.628 72.5072 296.628H136.28C143.937 296.628 150.143 290.422 150.143 282.765C150.144 275.108 143.937 268.902 136.28 268.902ZM168.167 214.371H49.8632C42.2064 214.371 36 220.577 36 228.235C36 235.893 42.2064 242.098 49.8632 242.098H168.167C175.824 242.098 182.03 235.892 182.03 228.235C182.03 220.578 175.824 214.371 168.167 214.371Z" fill="black"/>
<path d="M190.811 159.841H72.5078C64.8501 159.841 58.6445 166.047 58.6445 173.704C58.6445 181.362 64.8509 187.567 72.5078 187.567H190.811C198.469 187.567 204.674 181.361 204.674 173.704C204.675 166.047 198.469 159.841 190.811 159.841Z" fill="black"/>
</svg>
